<?xml version="1.0" encoding="UTF-8" standalone="no"?>
<!DOCTYPE svg PUBLIC "-//W3C//DTD SVG 1.1//EN" "http://www.w3.org/Graphics/SVG/1.1/DTD/svg11.dtd">
<!-- Created with Vectornator (http://vectornator.io/) -->
<svg height="100%" stroke-miterlimit="10" style="fill-rule:nonzero;clip-rule:evenodd;stroke-linecap:round;stroke-linejoin:round;" version="1.1" viewBox="0 0 1750 1082" width="100%" xml:space="preserve" xmlns="http://www.w3.org/2000/svg" xmlns:vectornator="http://vectornator.io" xmlns:xlink="http://www.w3.org/1999/xlink">
<defs/>
<g id="Layer-1" vectornator:layerName="Layer 1">
<path d="M732.549 216.337C703.883 268.67 689.216 294.837 688.549 294.837C687.883 294.837 684.383 301.17 678.049 313.837C671.716 326.503 668.216 332.837 667.549 332.837C666.883 332.837 665.883 334.67 664.549 338.337C663.216 342.003 660.716 346.503 657.049 351.837C653.383 357.17 650.883 361.67 649.549 365.337C648.216 369.003 647.216 370.837 646.549 370.837C645.883 370.837 643.716 374.67 640.049 382.337C636.383 390.003 634.216 393.837 633.549 393.837C632.883 393.837 629.383 400.17 623.049 412.837C616.716 425.503 613.216 431.837 612.549 431.837C611.883 431.837 609.883 435.503 606.549 442.837C603.216 450.17 599.716 456.503 596.049 461.837C592.383 467.17 588.383 474.503 584.049 483.837C581.883 488.503 579.716 493.17 577.549 497.837C576.883 497.503 576.216 497.17 575.549 496.837C574.216 496.17 572.883 494.67 571.549 492.337C570.216 490.003 568.383 486.003 566.049 480.337C563.716 474.67 561.549 470.003 559.549 466.337C557.549 462.67 556.216 460.837 555.549 460.837C555.216 460.837 554.883 460.837 554.549 460.837C554.549 460.17 554.549 459.503 554.549 458.837C554.549 458.17 554.549 457.503 554.549 456.837C554.216 456.837 553.883 456.837 553.549 456.837C552.883 456.837 550.049 451.67 545.049 441.337C540.049 431.003 537.216 425.837 536.549 425.837C535.883 425.837 532.049 418.837 525.049 404.837C518.049 390.837 513.716 382.67 512.049 380.337C510.383 378.003 509.049 377.17 508.049 377.837C507.049 378.503 504.049 384.003 499.049 394.337C494.049 404.67 489.383 413.17 485.049 419.837C480.716 426.503 478.549 430.503 478.549 431.837C478.549 432.503 478.549 433.17 478.549 433.837C478.216 433.837 477.883 433.837 477.549 433.837C476.883 433.837 475.216 436.837 472.549 442.837C469.883 448.837 467.716 453.337 466.049 456.337C464.383 459.337 463.216 460.837 462.549 460.837C462.216 460.837 461.883 460.837 461.549 460.837C461.549 461.503 461.549 462.17 461.549 462.837C461.549 463.503 461.549 464.17 461.549 464.837C461.216 464.837 460.883 464.837 460.549 464.837C460.216 464.837 459.883 464.837 459.549 464.837C459.549 465.503 459.549 466.17 459.549 466.837C459.549 467.503 459.549 468.17 459.549 468.837C459.216 468.837 458.883 468.837 458.549 468.837C457.883 468.837 456.216 472.17 453.549 478.837C450.883 485.503 449.216 488.837 448.549 488.837C447.883 488.837 447.383 489.67 447.049 491.337C446.716 493.003 445.216 495.67 442.549 499.337C439.883 503.003 437.549 507.337 435.549 512.337C433.549 517.337 431.049 522.003 428.049 526.337C425.049 530.67 423.216 534.003 422.549 536.337C421.883 538.67 421.216 539.837 420.549 539.837C420.216 539.837 419.883 539.837 419.549 539.837C419.549 540.503 419.549 541.17 419.549 541.837C419.549 542.503 419.549 543.17 419.549 543.837C419.216 543.837 418.883 543.837 418.549 543.837C417.883 543.837 413.716 551.503 406.049 566.837C398.383 582.17 394.216 589.837 393.549 589.837C392.883 589.837 391.883 591.67 390.549 595.337C389.216 599.003 388.049 601.17 387.049 601.837C386.049 602.503 385.216 604.003 384.549 606.337C383.883 608.67 383.216 609.837 382.549 609.837C381.883 609.837 381.216 611.17 380.549 613.837C379.883 616.503 379.216 617.837 378.549 617.837C377.883 617.837 376.549 620.17 374.549 624.837C372.549 629.503 370.716 632.67 369.049 634.337C367.383 636.003 365.883 638.67 364.549 642.337C363.216 646.003 359.716 652.503 354.049 661.837C348.383 671.17 345.549 676.503 345.549 677.837C345.549 678.503 345.549 679.17 345.549 679.837C345.216 679.837 344.883 679.837 344.549 679.837C343.883 679.837 341.383 684.337 337.049 693.337C332.716 702.337 330.216 706.837 329.549 706.837C329.216 706.837 328.883 706.837 328.549 706.837C328.549 707.503 328.549 708.17 328.549 708.837C328.549 709.503 328.549 710.17 328.549 710.837C328.216 710.837 327.883 710.837 327.549 710.837C326.883 710.837 323.716 716.67 318.049 728.337C312.383 740.003 309.216 745.837 308.549 745.837C307.883 745.837 305.883 749.503 302.549 756.837C299.216 764.17 297.049 768.17 296.049 768.837C295.049 769.503 294.216 771.003 293.549 773.337C292.883 775.67 292.216 776.837 291.549 776.837C290.883 776.837 290.216 778.17 289.549 780.837C288.883 783.503 288.216 784.837 287.549 784.837C286.883 784.837 284.383 789.337 280.049 798.337C275.716 807.337 273.216 811.837 272.549 811.837C271.883 811.837 271.216 813.17 270.549 815.837C269.883 818.503 269.216 819.837 268.549 819.837C267.883 819.837 267.216 821.003 266.549 823.337C265.883 825.67 264.383 828.337 262.049 831.337C259.716 834.337 258.216 837.17 257.549 839.837C256.883 842.503 256.216 843.837 255.549 843.837C254.883 843.837 253.216 846.837 250.549 852.837C247.883 858.837 245.716 863.337 244.049 866.337C242.383 869.337 241.216 870.837 240.549 870.837C239.883 870.837 236.883 876.503 231.549 887.837C226.216 899.17 223.216 904.837 222.549 904.837C221.883 904.837 220.049 908.17 217.049 914.837C214.049 921.503 211.883 925.503 210.549 926.837C209.216 928.17 208.383 929.837 208.049 931.837C207.883 932.837 207.716 933.837 207.549 934.837C446.216 934.837 684.883 934.837 923.549 934.837C1162.22 934.837 1400.88 934.837 1639.55 934.837C1639.55 934.17 1639.55 933.503 1639.55 932.837C1639.55 932.17 1639.55 931.503 1639.55 930.837C1639.22 930.837 1638.88 930.837 1638.55 930.837C1637.88 930.837 1624.88 906.837 1599.55 858.837C1574.22 810.837 1561.22 786.837 1560.55 786.837C1559.88 786.837 1555.72 779.17 1548.05 763.837C1540.38 748.503 1536.22 740.837 1535.55 740.837C1534.88 740.837 1532.38 736.17 1528.05 726.837C1523.72 717.503 1521.22 712.837 1520.55 712.837C1519.88 712.837 1515.72 705.17 1508.05 689.837C1500.38 674.503 1494.05 662.837 1489.05 654.837C1484.05 646.837 1480.88 641.003 1479.55 637.337C1478.22 633.67 1477.22 631.837 1476.55 631.837C1476.22 631.837 1475.88 631.837 1475.55 631.837C1475.55 631.17 1475.55 630.503 1475.55 629.837C1475.55 629.17 1475.55 628.503 1475.55 627.837C1475.22 627.837 1474.88 627.837 1474.55 627.837C1473.88 627.837 1471.05 622.67 1466.05 612.337C1461.05 602.003 1458.22 596.837 1457.55 596.837C1457.22 596.837 1456.88 596.837 1456.55 596.837C1456.55 596.17 1456.55 595.503 1456.55 594.837C1456.55 594.17 1456.55 593.503 1456.55 592.837C1456.22 592.837 1455.88 592.837 1455.55 592.837C1454.88 592.837 1453.38 590.17 1451.05 584.837C1448.72 579.503 1447.22 576.837 1446.55 576.837C1446.22 576.837 1445.88 576.837 1445.55 576.837C1445.55 576.17 1445.55 575.503 1445.55 574.837C1445.55 574.17 1445.55 573.503 1445.55 572.837C1445.22 572.837 1444.88 572.837 1444.55 572.837C1444.22 572.837 1443.88 572.837 1443.55 572.837C1443.55 572.17 1443.55 571.503 1443.55 570.837C1443.55 570.17 1443.55 569.503 1443.55 568.837C1443.22 568.837 1442.88 568.837 1442.55 568.837C1441.88 568.837 1440.88 567.003 1439.55 563.337C1438.22 559.67 1437.22 557.837 1436.55 557.837C1436.22 557.837 1435.88 557.837 1435.55 557.837C1435.55 557.17 1435.55 556.503 1435.55 555.837C1435.55 555.17 1435.55 554.503 1435.55 553.837C1435.22 553.837 1434.88 553.837 1434.55 553.837C1433.88 553.837 1432.72 551.837 1431.05 547.837C1429.38 543.837 1428.22 541.837 1427.55 541.837C1427.22 541.837 1426.88 541.837 1426.55 541.837C1426.55 541.17 1426.55 540.503 1426.55 539.837C1426.55 539.17 1426.55 538.503 1426.55 537.837C1426.22 537.837 1425.88 537.837 1425.55 537.837C1424.88 537.837 1423.55 535.337 1421.55 530.337C1419.55 525.337 1418.22 522.837 1417.55 522.837C1416.88 522.837 1416.22 521.503 1415.55 518.837C1414.88 516.17 1414.22 514.837 1413.55 514.837C1412.88 514.837 1409.38 509.003 1403.05 497.337C1396.72 485.67 1393.55 479.17 1393.55 477.837C1393.55 476.503 1392.72 474.837 1391.05 472.837C1389.38 470.837 1388.22 468.67 1387.55 466.337C1386.88 464.003 1386.22 462.837 1385.55 462.837C1384.88 462.837 1384.22 461.503 1383.55 458.837C1382.88 456.17 1382.22 454.837 1381.55 454.837C1380.88 454.837 1379.88 453.003 1378.55 449.337C1377.22 445.67 1376.22 443.837 1375.55 443.837C1374.88 443.837 1372.38 439.337 1368.05 430.337C1363.72 421.337 1361.22 416.837 1360.55 416.837C1359.88 416.837 1359.22 415.503 1358.55 412.837C1357.88 410.17 1356.38 407.337 1354.05 404.337C1351.72 401.337 1345.38 389.67 1335.05 369.337C1324.72 349.003 1319.22 338.837 1318.55 338.837C1317.88 338.837 1311.55 327.17 1299.55 303.837C1287.55 280.503 1280.22 267.337 1277.55 264.337C1274.88 261.337 1268.88 250.837 1259.55 232.837C1250.22 214.837 1245.05 205.837 1244.05 205.837C1243.05 205.837 1241.55 207.67 1239.55 211.337C1237.55 215.003 1229.88 229.67 1216.55 255.337C1203.22 281.003 1195.88 294.503 1194.55 295.837C1193.22 297.17 1190.05 303.003 1185.05 313.337C1180.05 323.67 1171.55 339.337 1159.55 360.337C1147.55 381.337 1141.22 393.003 1140.55 395.337C1139.88 397.67 1138.88 399.503 1137.55 400.837C1136.22 402.17 1134.88 404.67 1133.55 408.337C1132.22 412.003 1130.05 416.003 1127.05 420.337C1124.05 424.67 1122.22 428.003 1121.55 430.337C1120.88 432.67 1120.22 433.837 1119.55 433.837C1118.88 433.837 1118.22 435.17 1117.55 437.837C1116.88 440.503 1116.22 441.837 1115.55 441.837C1114.88 441.837 1112.38 446.337 1108.05 455.337C1103.72 464.337 1101.22 468.837 1100.55 468.837C1099.88 468.837 1098.55 471.503 1096.55 476.837C1094.55 482.17 1092.72 484.837 1091.05 484.837C1089.38 484.837 1087.22 481.503 1084.55 474.837C1081.88 468.17 1080.22 464.837 1079.55 464.837C1078.88 464.837 1076.72 461.003 1073.05 453.337C1069.38 445.67 1067.22 441.837 1066.55 441.837C1065.88 441.837 1064.88 439.837 1063.55 435.837C1062.22 431.837 1061.22 429.837 1060.55 429.837C1059.88 429.837 1058.88 428.003 1057.55 424.337C1056.22 420.67 1055.22 418.837 1054.55 418.837C1053.88 418.837 1053.05 417.503 1052.05 414.837C1051.05 412.17 1050.22 410.837 1049.55 410.837C1049.22 410.837 1048.88 410.837 1048.55 410.837C1048.55 410.17 1048.55 409.503 1048.55 408.837C1048.55 407.503 1047.55 405.003 1045.55 401.337C1043.55 397.67 1042.22 395.837 1041.55 395.837C1041.22 395.837 1040.88 395.837 1040.55 395.837C1040.55 395.17 1040.55 394.503 1040.55 393.837C1040.55 393.17 1040.55 392.503 1040.55 391.837C1040.22 391.837 1039.88 391.837 1039.55 391.837C1039.22 391.837 1038.88 391.837 1038.55 391.837C1038.55 391.17 1038.55 390.503 1038.55 389.837C1038.55 389.17 1038.55 388.503 1038.55 387.837C1038.22 387.837 1037.88 387.837 1037.55 387.837C1037.22 387.837 1036.88 387.837 1036.55 387.837C1036.55 387.17 1036.55 386.503 1036.55 385.837C1036.55 384.503 1035.72 382.67 1034.05 380.337C1032.38 378.003 1031.22 376.837 1030.55 376.837C1029.88 376.837 1028.88 378.503 1027.55 381.837C1026.22 385.17 1025.22 386.837 1024.55 386.837C1024.22 386.837 1023.88 386.837 1023.55 386.837C1023.55 387.503 1023.55 388.17 1023.55 388.837C1023.55 390.17 1022.88 391.503 1021.55 392.837C1020.22 394.17 1019.22 396.003 1018.55 398.337C1017.88 400.67 1017.22 401.837 1016.55 401.837C1015.88 401.837 1013.72 405.837 1010.05 413.837C1006.38 421.837 1004.22 425.837 1003.55 425.837C1002.88 425.837 1001.88 427.67 1000.55 431.337C999.216 435.003 995.049 442.67 988.049 454.337C981.049 466.003 977.216 473.17 976.549 475.837C975.883 478.503 975.049 480.67 974.049 482.337C973.049 484.003 971.883 484.837 970.549 484.837C969.216 484.837 967.216 481.503 964.549 474.837C961.883 468.17 960.216 464.837 959.549 464.837C958.883 464.837 957.383 462.837 955.049 458.837C952.716 454.837 950.883 451.003 949.549 447.337C948.216 443.67 947.216 441.837 946.549 441.837C945.883 441.837 945.216 440.67 944.549 438.337C943.883 436.003 941.049 430.837 936.049 422.837C931.049 414.837 928.216 409.67 927.549 407.337C926.883 405.003 926.216 403.837 925.549 403.837C924.883 403.837 921.049 396.837 914.049 382.837C907.049 368.837 903.216 361.837 902.549 361.837C901.883 361.837 900.049 359.17 897.049 353.837C894.049 348.503 892.216 344.67 891.549 342.337C890.883 340.003 889.216 337.003 886.549 333.337C883.883 329.67 882.216 326.67 881.549 324.337C880.883 322.003 877.383 315.67 871.049 305.337C864.716 295.003 855.216 277.837 842.549 253.837C829.883 229.837 823.049 217.837 822.049 217.837C821.049 217.837 814.883 207.003 803.549 185.337C792.216 163.67 786.216 152.837 785.549 152.837C784.883 152.837 783.883 151.17 782.549 147.837C781.216 144.503 779.716 142.003 778.049 140.337C777.216 139.503 776.383 138.67 775.549 137.837C761.216 164.003 746.883 190.17 732.549 216.337Z" fill="#c3b299" fill-rule="evenodd" opacity="1" stroke="none"/>
</g>
</svg>
